name C:\Users\u0101727\Documents\MyRepositories\upper-imu-dc\Results\main_tracking\Case_42\FLX01_linearAccelerations_bodyFrame.mot
datacolumns 4
datarows 141
range 5.01000000 6.41000000
endheader 
time	radius_imu_x	radius_imu_y	radius_imu_z	
          5.01000000	         -5.56123885	          8.97470461	          6.73098440	
          5.02000000	         -5.32201275	          9.29804265	          6.66525091	
          5.03000000	         -4.84142774	          9.92742760	          6.73680798	
          5.04000000	         -4.74530216	         10.07367690	          6.48849895	
          5.05000000	         -4.44693910	         10.36669132	          6.41028837	
          5.06000000	         -4.12567488	         10.64551157	          6.34953890	
          5.07000000	         -3.78749370	         10.90440189	          6.28847537	
          5.08000000	         -3.43531729	         11.14287507	          6.22599259	
          5.09000000	         -3.07276936	         11.35849703	          6.15650733	
          5.10000000	         -2.70423868	         11.55008282	          6.07497330	
          5.11000000	         -2.33576441	         11.71602712	          5.97508340	
          5.12000000	         -1.97007759	         11.85895448	          5.84851526	
          5.13000000	         -1.62593109	         11.97025462	          5.68493244	
          5.14000000	         -1.26696892	         12.08837111	          5.47435481	
          5.15000000	         -0.98485887	         12.15017424	          5.12522924	
          5.16000000	         -0.30513128	         12.70834652	          5.01677482	
          5.17000000	         -0.47543012	         12.66012399	          4.45416344	
          5.18000000	         -0.26687749	         12.79202636	          4.22335775	
          5.19000000	         -0.04950053	         12.89567383	          4.04395556	
          5.20000000	          0.15684455	         12.98824282	          3.89789338	
          5.21000000	          0.35502930	         13.06469952	          3.77864927	
          5.22000000	          0.54326659	         13.12581237	          3.67935949	
          5.23000000	          0.72215446	         13.17200087	          3.59521087	
          5.24000000	          0.89261437	         13.20438140	          3.52234630	
          5.25000000	          1.05603484	         13.22419599	          3.45780152	
          5.26000000	          1.21384642	         13.23268098	          3.39925558	
          5.27000000	          1.36726264	         13.23093095	          3.34489352	
          5.28000000	          1.51707949	         13.21986055	          3.29329488	
          5.29000000	          1.66361502	         13.20022011	          3.24335549	
          5.30000000	          1.80677012	         13.17264604	          3.19422450	
          5.31000000	          1.94615254	         13.13771357	          3.14524653	
          5.32000000	          2.08120301	         13.09596494	          3.09590303	
          5.33000000	          2.21130618	         13.04790854	          3.04575665	
          5.34000000	          2.33589123	         12.99400905	          2.99440704	
          5.35000000	          2.45451302	         12.93468939	          2.94146673	
          5.36000000	          2.56689909	         12.87035505	          2.88656238	
          5.37000000	          2.67296639	         12.80143796	          2.82936155	
          5.38000000	          2.77282001	         12.72844200	          2.76961664	
          5.39000000	          2.86673635	         12.65196896	          2.70720984	
          5.40000000	          2.95512987	         12.57271938	          2.64218489	
          5.41000000	          3.03851527	         12.49148000	          2.57476115	
          5.42000000	          3.11747668	         12.40911088	          2.50533242	
          5.43000000	          3.19263716	         12.32652745	          2.43445592	
          5.44000000	          3.26460852	         12.24466113	          2.36283522	
          5.45000000	          3.33391533	         12.16438985	          2.29129965	
          5.46000000	          3.40091463	         12.08645646	          2.22078327	
          5.47000000	          3.46574617	         12.01141549	          2.15230760	
          5.48000000	          3.52833741	         11.93963821	          2.08697074	
          5.49000000	          3.58846213	         11.87137039	          2.02594078	
          5.50000000	          3.64582834	         11.80680912	          1.97044627	
          5.51000000	          3.70015533	         11.74616086	          1.92175732	
          5.52000000	          3.75120307	         11.68965643	          1.88115432	
          5.53000000	          3.79874298	         11.63752295	          1.84988373	
          5.54000000	          3.84249243	         11.58993232	          1.82910034	
          5.55000000	          3.88203670	         11.54694336	          1.81979629	
          5.56000000	          3.91675294	         11.50845106	          1.82272685	
          5.57000000	          3.94574734	         11.47415702	          1.83834776	
          5.58000000	          3.96782052	         11.44357094	          1.86677434	
          5.59000000	          3.98147420	         11.41604620	          1.90776241	
          5.60000000	          3.98497208	         11.39084732	          1.96070564	
          5.61000000	          3.97646060	         11.36723583	          2.02464473	
          5.62000000	          3.95413020	         11.34454815	          2.09829279	
          5.63000000	          3.91637638	         11.32224272	          2.18009001	
          5.64000000	          3.86194088	         11.29991259	          2.26829588	
          5.65000000	          3.79005718	         11.27727855	          2.36111062	
          5.66000000	          3.70061977	         11.25417996	          2.45680417	
          5.67000000	          3.59433979	         11.23056317	          2.55382597	
          5.68000000	          3.47280710	         11.20645700	          2.65087021	
          5.69000000	          3.33836263	         11.18193018	          2.74687958	
          5.70000000	          3.19373464	         11.15703415	          2.84098645	
          5.71000000	          3.04155288	         11.13174389	          2.93241602	
          5.72000000	          2.88395859	         11.10592223	          3.02039872	
          5.73000000	          2.72241552	         11.07933045	          3.10413521	
          5.74000000	          2.55768135	         11.05167226	          3.18282085	
          5.75000000	          2.38989036	         11.02263055	          3.25569669	
          5.76000000	          2.21872916	         10.99187730	          3.32208821	
          5.77000000	          2.04367533	         10.95907576	          3.38141979	
          5.78000000	          1.86425194	         10.92389950	          3.43321361	
          5.79000000	          1.68026553	         10.88607134	          3.47708460	
          5.80000000	          1.49201534	         10.84541525	          3.51274098	
          5.81000000	          1.30045970	         10.80191625	          3.53999781	
          5.82000000	          1.10730442	         10.75577947	          3.55880333	
          5.83000000	          0.91496937	         10.70746779	          3.56926502	
          5.84000000	          0.72641978	         10.65769348	          3.57165496	
          5.85000000	          0.54490578	         10.60735885	          3.56638623	
          5.86000000	          0.37368145	         10.55746691	          3.55397554	
          5.87000000	          0.21574759	         10.50902560	          3.53501589	
          5.88000000	          0.07363144	         10.46295684	          3.51016846	
          5.89000000	         -0.05078803	         10.42001785	          3.48016771	
          5.90000000	         -0.15641302	         10.38074475	          3.44583104	
          5.91000000	         -0.24303766	         10.34542037	          3.40806565	
          5.92000000	         -0.31142095	         10.31406132	          3.36786567	
          5.93000000	         -0.36324720	         10.28642689	          3.32629313	
          5.94000000	         -0.40093376	         10.26205538	          3.28443439	
          5.95000000	         -0.42735351	         10.24032127	          3.24332156	
          5.96000000	         -0.44555286	         10.22050398	          3.20381451	
          5.97000000	         -0.45848024	         10.20187018	          3.16646190	
          5.98000000	         -0.46873691	         10.18376821	          3.13138648	
          5.99000000	         -0.47841153	         10.16570857	          3.09824109	
          6.00000000	         -0.48906282	         10.14738926	          3.06624422	
          6.01000000	         -0.50183586	         10.12864744	          3.03426121	
          6.02000000	         -0.51761639	         10.10936770	          3.00089477	
          6.03000000	         -0.53712444	         10.08940535	          2.96457463	
          6.04000000	         -0.56091457	         10.06856547	          2.92366067	
          6.05000000	         -0.58931749	         10.04663665	          2.87657953	
          6.06000000	         -0.62238248	         10.02344717	          2.82199708	
          6.07000000	         -0.65985242	          9.99891234	          2.75900209	
          6.08000000	         -0.70116694	          9.97305947	          2.68726155	
          6.09000000	         -0.74549537	          9.94603228	          2.60711141	
          6.10000000	         -0.79181866	          9.91808194	          2.51956601	
          6.11000000	         -0.83904956	          9.88955061	          2.42625996	
          6.12000000	         -0.88615478	          9.86084349	          2.32935318	
          6.13000000	         -0.93225489	          9.83237855	          2.23141066	
          6.14000000	         -0.97670810	          9.80451751	          2.13523150	
          6.15000000	         -1.01919567	          9.77750177	          2.04359145	
          6.16000000	         -1.05975225	          9.75143176	          1.95891392	
          6.17000000	         -1.09862274	          9.72631022	          1.88295367	
          6.18000000	         -1.13597438	          9.70212549	          1.81661252	
          6.19000000	         -1.17150876	          9.67891841	          1.75992760	
          6.20000000	         -1.20453313	          9.65679729	          1.71229962	
          6.21000000	         -1.23268547	          9.63585665	          1.67260867	
          6.22000000	         -1.26028364	          9.61574767	          1.64039806	
          6.23000000	         -1.26665227	          9.59962945	          1.61117511	
          6.24000000	         -1.28093872	          9.58201518	          1.59008435	
          6.25000000	         -1.27359031	          9.56790251	          1.57091705	
          6.26000000	         -1.25932267	          9.55551446	          1.55522155	
          6.27000000	         -1.23280002	          9.54511802	          1.54159291	
          6.28000000	         -1.19549717	          9.53660364	          1.52956255	
          6.29000000	         -1.14753106	          9.52976729	          1.51852062	
          6.30000000	         -1.08928453	          9.52436226	          1.50800331	
          6.31000000	         -1.02087843	          9.52014466	          1.49767003	
          6.32000000	         -0.94234252	          9.51690130	          1.48735158	
          6.33000000	         -0.85385359	          9.51443863	          1.47705793	
          6.34000000	         -0.75599606	          9.51255467	          1.46695486	
          6.35000000	         -0.64990919	          9.51100852	          1.45729577	
          6.36000000	         -0.53730109	          9.50951121	          1.44834660	
          6.37000000	         -0.42036252	          9.50774360	          1.44028921	
          6.38000000	         -0.30156877	          9.50539700	          1.43307639	
          6.39000000	         -0.18346505	          9.50223538	          1.42635242	
          6.40000000	         -0.06847070	          9.49815306	          1.41942395	
          6.41000000	          0.04127077	          9.49319605	          1.41120624	
